<?xml version="1.0" encoding="UTF-8" standalone="no"?>
<!-- Created with Inkscape (http://www.inkscape.org/) -->
<svg
   xmlns:dc="http://purl.org/dc/elements/1.1/"
   xmlns:cc="http://web.resource.org/cc/"
   xmlns:rdf="http://www.w3.org/1999/02/22-rdf-syntax-ns#"
   xmlns:svg="http://www.w3.org/2000/svg"
   xmlns="http://www.w3.org/2000/svg"
   xmlns:sodipodi="http://sodipodi.sourceforge.net/DTD/sodipodi-0.dtd"
   xmlns:inkscape="http://www.inkscape.org/namespaces/inkscape"
   id="svg2160"
   sodipodi:version="0.32"
   inkscape:version="0.45"
   width="200"
   height="30"
   version="1.0"
   sodipodi:docbase="D:\My Pictures"
   sodipodi:docname="windyroad-boxed.svg"
   inkscape:output_extension="org.inkscape.output.svg.inkscape"
   sodipodi:modified="true">
  <metadata
     id="metadata2165">
    <rdf:RDF>
      <cc:Work
         rdf:about="">
        <dc:format>image/svg+xml</dc:format>
        <dc:type
           rdf:resource="http://purl.org/dc/dcmitype/StillImage" />
      </cc:Work>
    </rdf:RDF>
  </metadata>
  <defs
     id="defs2163" />
  <sodipodi:namedview
     inkscape:window-height="590"
     inkscape:window-width="1149"
     inkscape:pageshadow="2"
     inkscape:pageopacity="0.0"
     guidetolerance="10.0"
     gridtolerance="10.0"
     objecttolerance="10.0"
     borderopacity="1.0"
     bordercolor="#666666"
     pagecolor="#ffffff"
     id="base"
     inkscape:zoom="4.5215487"
     inkscape:cx="111.89259"
     inkscape:cy="17.187995"
     inkscape:window-x="22"
     inkscape:window-y="29"
     inkscape:current-layer="svg2160"
     width="200px"
     height="30px"
     showgrid="true" />
  <rect
     style="opacity:1;fill:#ffffff;fill-opacity:1;stroke:#000000;stroke-width:1.88072443;stroke-linecap:round;stroke-linejoin:round;stroke-miterlimit:4;stroke-dasharray:none;stroke-dashoffset:7.05451787;stroke-opacity:1"
     id="rect2169"
     width="198.11928"
     height="28.119276"
     x="0.94036222"
     y="0.94036174"
     rx="2.7307689"
     ry="2.8725915" />
  <path
     sodipodi:type="inkscape:offset"
     inkscape:radius="1.1694967"
     inkscape:original="M 16.21875 0 C 12.127746 -0.1131769 7.9425364 0.94131287 6.125 2.53125 C 5.4589913 3.1138592 5 3.998022 5 4.65625 C 5 6.6070693 7.3110844 8.6139984 11.21875 10.0625 C 12.563716 10.561055 14.191293 11.04692 14.875 11.15625 C 15.113805 11.194436 15.279243 11.252006 15.25 11.28125 C 15.220756 11.310492 14.758696 11.474805 14.21875 11.65625 C 12.187495 12.338828 10.332299 13.470028 9.46875 14.5625 C 8.7091583 15.523455 8.4279885 16.266725 8.375 17.375 C 8.3187222 18.552112 8.5637541 19.480846 9.21875 20.59375 C 9.746886 21.491102 11.296367 23.124766 12.40625 23.96875 C 16.332787 26.954595 22.682744 29.199341 28.8125 29.78125 C 29.490413 29.845607 30.221802 29.916901 30.4375 29.9375 C 31.359873 30.025589 32.886024 30.016 33.28125 29.90625 C 34.264456 29.633226 34.411394 29.004808 33.65625 28.28125 C 32.935718 27.590862 32.375911 27.426862 30.15625 27.3125 C 26.86019 27.142681 24.439463 26.70322 21.5625 25.75 C 17.157344 24.290447 13.821451 22.009021 12.625 19.59375 C 12.204113 18.744109 12.13106 18.510841 12.125 17.84375 C 12.116341 16.890578 12.305073 16.28812 12.78125 15.59375 C 14.155096 13.590379 17.527322 12.315804 21.96875 12.125 C 24.05098 12.035549 24.739002 11.76237 24.21875 11.1875 C 23.822994 10.750193 23.264535 10.632056 21.40625 10.53125 C 19.194572 10.411274 17.982626 10.236338 16.25 9.875 C 13.575185 9.3171693 11.089278 8.3197429 9.625 7.21875 C 5.8470299 4.3780858 8.9479964 1.3192055 15.875 1.03125 C 17.645383 0.95765303 18.218751 0.83963164 18.21875 0.5625 C 18.21875 0.16463316 17.789431 0.043451154 16.21875 0 z M 20.46875 4.75 C 19.039926 4.703437 18.56024 4.7271559 18.34375 4.84375 C 17.950948 5.0552986 17.987112 5.3619595 18.4375 5.625 C 18.745944 5.8051402 19.146871 5.8594317 20.625 5.9375 C 22.973086 6.0615122 25.261625 6.397421 27.125 6.875 C 34.759806 8.8317714 38.321408 13.015575 34.71875 15.78125 C 33.190365 16.954559 30.793872 17.620739 27.34375 17.8125 C 25.361823 17.922658 25.003013 17.988125 24.8125 18.40625 C 24.7007 18.65163 24.734519 18.749048 24.96875 19 C 25.562667 19.636318 25.954623 19.718487 28.4375 19.875 C 30.888207 20.029489 32.194351 20.209871 34.1875 20.65625 C 39.893076 21.934049 45.32887 24.91455 48.0625 28.21875 C 48.859306 29.181864 49.500576 29.586735 50.5625 29.84375 C 52.101181 30.216153 53.096824 29.87053 53.03125 29 C 53.006538 28.671958 51.116058 26.764964 49.65625 25.59375 C 46.216341 22.833894 41.20481 20.447222 35.9375 19.09375 C 35.158721 18.893637 34.929798 18.809895 35.09375 18.75 C 37.983709 17.694233 39.528075 16.36389 39.84375 14.65625 C 39.982726 13.904457 39.88505 13.274087 39.40625 12.25 C 38.731817 10.807481 36.488537 9.0130937 33.84375 7.78125 C 29.966535 5.975388 25.258866 4.9060983 20.46875 4.75 z "
     style="fill:#ffffff;fill-opacity:1;stroke:none;stroke-width:0.5;stroke-miterlimit:4;stroke-dasharray:none;stroke-opacity:1"
     id="path7253"
     d="M 16.25,-1.15625 C 11.936221,-1.2755899 7.6380478,-0.35074656 5.34375,1.65625 C 4.4368316,2.4496015 3.84375,3.4543514 3.84375,4.65625 C 3.84375,6.0934836 4.6555478,7.3776883 5.875,8.4375 C 7.0944522,9.4973117 8.7640696,10.396934 10.8125,11.15625 C 11.185846,11.294643 11.464241,11.341081 11.84375,11.46875 C 10.508841,12.130266 9.3197931,12.885702 8.5625,13.84375 C 7.7080458,14.924715 7.2799722,16.032015 7.21875,17.3125 C 7.153338,18.680665 7.4841627,19.939362 8.21875,21.1875 C 8.939346,22.411859 10.416271,23.939574 11.6875,24.90625 C 15.872808,28.088872 22.351693,30.33603 28.6875,30.9375 C 29.363302,31.001657 30.091643,31.072658 30.3125,31.09375 C 30.838452,31.14398 31.48009,31.161693 32.0625,31.15625 C 32.64491,31.150807 33.030661,31.187614 33.59375,31.03125 C 34.293771,30.836863 35.048219,30.402419 35.25,29.53125 C 35.451781,28.660081 34.995804,27.942508 34.46875,27.4375 C 34.03264,27.019635 33.459368,26.657955 32.78125,26.46875 C 32.103132,26.279545 31.352224,26.214649 30.21875,26.15625 C 26.996845,25.990252 24.730412,25.550372 21.9375,24.625 C 17.710399,23.224442 14.630165,20.965454 13.6875,19.0625 C 13.280514,18.240921 13.286557,18.427947 13.28125,17.84375 C 13.274034,17.049412 13.37075,16.803029 13.75,16.25 C 14.749869,14.791971 17.787587,13.463558 22.03125,13.28125 C 23.11785,13.234571 23.806006,13.192226 24.5,12.90625 C 24.846997,12.763262 25.384945,12.473358 25.53125,11.8125 C 25.677555,11.151642 25.340789,10.679224 25.09375,10.40625 C 24.747385,10.02352 24.190359,9.723626 23.625,9.59375 C 23.059641,9.463874 22.416239,9.4263982 21.46875,9.375 C 19.295395,9.2571029 18.199776,9.0732372 16.5,8.71875 C 13.956166,8.1882353 11.539779,7.2040428 10.3125,6.28125 C 9.5100108,5.6778566 9.242822,5.1637768 9.1875,4.875 C 9.132178,4.5862232 9.1749846,4.3831812 9.5625,4 C 10.337531,3.2336376 12.638462,2.324641 15.9375,2.1875 C 16.843377,2.1498416 17.431923,2.1329457 17.9375,2.03125 C 18.190289,1.9804022 18.423457,1.9044019 18.71875,1.71875 C 19.014043,1.5330981 19.375002,1.0350524 19.375,0.5625 C 19.375,0.25270868 19.246955,-0.20805791 18.96875,-0.5 C 18.690545,-0.79194209 18.390831,-0.89393741 18.125,-0.96875 C 17.593339,-1.1183752 17.062438,-1.1337748 16.25,-1.15625 z M 18.90625,3.53125 C 18.50727,3.5420021 18.177832,3.5989146 17.78125,3.8125 C 17.5726,3.9248713 17.372656,4.0850514 17.1875,4.34375 C 17.002344,4.6024486 16.863066,4.9821211 16.90625,5.34375 C 16.992619,6.0670079 17.459419,6.4005391 17.84375,6.625 C 18.144342,6.8005545 18.535646,6.9118055 18.9375,6.96875 C 19.339354,7.0256945 19.814738,7.0542565 20.5625,7.09375 C 22.839481,7.2140068 25.075701,7.5468528 26.84375,8 C 30.509339,8.9394763 33.122499,10.458204 34.25,11.78125 C 34.81375,12.442773 34.996957,12.977719 34.96875,13.40625 C 34.940543,13.834781 34.713862,14.295735 34,14.84375 C 32.770399,15.787689 30.611484,16.471152 27.28125,16.65625 C 26.281374,16.711824 25.696662,16.720483 25.15625,16.84375 C 24.886044,16.905383 24.584233,17.02057 24.3125,17.21875 C 24.040767,17.41693 23.850284,17.686154 23.75,17.90625 C 23.651443,18.122565 23.505445,18.565249 23.625,19 C 23.744555,19.434751 23.975535,19.652365 24.125,19.8125 C 24.492388,20.206117 25.061077,20.586946 25.71875,20.75 C 26.376423,20.913054 27.124593,20.952428 28.375,21.03125 C 30.7947,21.183784 31.985111,21.37525 33.9375,21.8125 C 39.419199,23.04016 44.687822,25.985105 47.15625,28.96875 C 48.046893,30.045287 49.051024,30.671001 50.28125,30.96875 C 51.187044,31.187977 52.006658,31.265928 52.78125,31 C 53.168546,30.867036 53.566015,30.632601 53.84375,30.25 C 54.121485,29.867399 54.220979,29.350708 54.1875,28.90625 C 54.145647,28.350667 54.002585,28.301536 53.90625,28.15625 C 53.809915,28.010964 53.7127,27.89215 53.59375,27.75 C 53.355851,27.4657 53.063463,27.12909 52.71875,26.78125 C 52.029324,26.08557 51.154357,25.312783 50.375,24.6875 C 47.139182,22.091387 42.624006,19.997143 37.84375,18.5625 C 39.464483,17.576599 40.711148,16.437541 41,14.875 C 41.178023,13.911979 40.99969,12.885607 40.46875,11.75 C 39.53051,9.7432339 37.153132,8.027256 34.34375,6.71875 C 30.298264,4.8345138 25.438952,3.7546985 20.5,3.59375 C 19.774869,3.5701192 19.30523,3.5204979 18.90625,3.53125 z " />
  <g
     id="g2260"
     transform="matrix(0.1898591,0,0,0.1898591,-1.0906815,-44.854711)">
    <path
       id="path2235"
       d="M 166.05147,393.984 C 164.91537,393.8755 161.06443,393.5094 157.49382,393.17043 C 125.208,390.10548 91.713391,378.22232 71.03207,362.49568 C 65.186245,358.05036 57.122197,349.47765 54.340471,344.75124 C 50.890565,338.8895 49.595869,333.93747 49.892288,327.73755 C 50.17138,321.90019 51.674947,318.07136 55.675765,313.00995 C 60.224137,307.25583 69.986726,301.26955 80.685476,297.67437 C 83.529407,296.71869 85.982277,295.81076 86.136308,295.65674 C 86.290335,295.50271 85.387261,295.21212 84.129463,295.01099 C 80.528335,294.43514 71.919173,291.85545 64.835151,289.22953 C 44.253223,281.60018 32.080016,271.01058 32.080016,260.73549 C 32.080016,257.26856 34.568586,252.63214 38.076496,249.5635 C 47.649577,241.1892 69.597648,235.70358 91.145226,236.29969 C 99.418101,236.52855 101.72157,237.17577 101.72157,239.27136 C 101.72157,240.73103 98.652453,241.33903 89.327733,241.72667 C 52.842765,243.24335 36.600986,259.37985 56.499796,274.34181 C 64.212237,280.14081 77.314754,285.3919 91.403178,288.33003 C 100.52903,290.23322 106.89272,291.00976 118.54177,291.64168 C 128.32947,292.17263 131.14788,292.84547 133.23235,295.14879 C 135.97255,298.17667 132.45993,299.67061 121.49269,300.14175 C 98.099401,301.14673 80.243754,307.88388 73.007619,318.43576 C 70.499565,322.09305 69.615909,325.20707 69.661518,330.22749 C 69.693435,333.7411 70.019711,334.90022 72.236546,339.37533 C 78.538333,352.09672 96.110131,364.25173 119.31237,371.93929 C 134.46551,376.95996 147.21545,379.2795 164.57601,380.17395 C 176.2671,380.7763 179.15037,381.56547 182.94546,385.20179 C 186.92285,389.01282 186.17052,392.30034 180.99191,393.73837 C 178.91023,394.31643 170.90967,394.44797 166.05147,393.984 z M 272.0638,393.43284 C 266.47059,392.07912 263.16035,389.90616 258.96352,384.83338 C 244.56531,367.42995 215.86481,351.84725 185.81318,345.117 C 175.31514,342.7659 168.38999,341.82954 155.48196,341.01584 C 142.40449,340.19147 140.31088,339.65199 137.18268,336.30046 C 135.94897,334.97868 135.84883,334.57269 136.43769,333.28026 C 137.44113,331.07796 139.37594,330.60747 149.81488,330.02726 C 167.98689,329.01724 180.60479,325.55752 188.65489,319.37763 C 207.63032,304.81064 188.82497,282.78585 148.61196,272.47941 C 138.79744,269.96397 126.69927,268.23581 114.33175,267.58263 C 106.54635,267.17144 104.44778,266.86814 102.82319,265.91933 C 100.45096,264.53388 100.24284,262.81882 102.31175,261.70458 C 103.45201,261.09047 105.99951,260.98204 113.52522,261.22729 C 138.75507,262.04947 163.54262,267.66045 183.96416,277.17204 C 197.89442,283.66024 209.68002,293.15613 213.2323,300.75397 C 215.75417,306.1479 216.37976,309.41719 215.64776,313.37693 C 213.98509,322.37118 205.76565,329.45671 190.54405,335.0175 C 189.6805,335.33297 190.86854,335.83539 194.97042,336.8894 C 222.71367,344.01822 249.20944,356.53493 267.32766,371.07127 C 275.01656,377.24012 284.9733,387.29569 285.10346,389.02351 C 285.44884,393.60865 280.16813,395.39431 272.0638,393.43284 z "
       style="fill:#000000" />
    <text
       sodipodi:linespacing="125%"
       id="text2170"
       y="359.88629"
       x="264.11703"
       style="font-size:124.43090057px;font-style:normal;font-variant:normal;font-weight:normal;font-stretch:normal;text-align:start;line-height:125%;writing-mode:lr-tb;text-anchor:start;fill:#000000;fill-opacity:1;stroke:none;stroke-width:1px;stroke-linecap:butt;stroke-linejoin:miter;stroke-opacity:1;font-family:Futura Lt BT"
       xml:space="preserve"><tspan
         id="tspan2172"
         y="359.88629"
         x="264.11703"
         sodipodi:role="line">WINDY ROAD</tspan></text>
  </g>
</svg>
