<?xml version="1.0" encoding="UTF-8" standalone="no"?>
<!-- Created with Inkscape (http://www.inkscape.org/) -->

<svg
   xmlns:dc="http://purl.org/dc/elements/1.1/"
   xmlns:cc="http://creativecommons.org/ns#"
   xmlns:rdf="http://www.w3.org/1999/02/22-rdf-syntax-ns#"
   xmlns:svg="http://www.w3.org/2000/svg"
   xmlns="http://www.w3.org/2000/svg"
   xmlns:xlink="http://www.w3.org/1999/xlink"
   xmlns:sodipodi="http://sodipodi.sourceforge.net/DTD/sodipodi-0.dtd"
   xmlns:inkscape="http://www.inkscape.org/namespaces/inkscape"
   version="1.0"
   width="200"
   height="60"
   id="svg2160"
   inkscape:version="0.48.0 r9654"
   sodipodi:docname="logo-white.svg">
  <sodipodi:namedview
     pagecolor="#ffffff"
     bordercolor="#666666"
     borderopacity="1"
     objecttolerance="10"
     gridtolerance="10"
     guidetolerance="10"
     inkscape:pageopacity="0"
     inkscape:pageshadow="2"
     inkscape:window-width="640"
     inkscape:window-height="480"
     id="namedview18"
     showgrid="false"
     inkscape:zoom="2.545"
     inkscape:cx="100"
     inkscape:cy="30"
     inkscape:window-x="0"
     inkscape:window-y="0"
     inkscape:window-maximized="0"
     inkscape:current-layer="svg2160" />
  <metadata
     id="metadata2165">
    <rdf:RDF>
      <cc:Work
         rdf:about="">
        <dc:format>image/svg+xml</dc:format>
        <dc:type
           rdf:resource="http://purl.org/dc/dcmitype/StillImage" />
        <dc:title />
      </cc:Work>
    </rdf:RDF>
  </metadata>
  <defs
     id="defs2163">
    <linearGradient
       id="linearGradient5311">
      <stop
         id="stop5313"
         style="stop-color:#ffffff;stop-opacity:0.49714285"
         offset="0" />
      <stop
         id="stop5315"
         style="stop-color:#ffffff;stop-opacity:0"
         offset="1" />
    </linearGradient>
    <linearGradient
       x1="118.35831"
       y1="30.018106"
       x2="118.35831"
       y2="18.154741"
       id="linearGradient5317"
       xlink:href="#linearGradient5311"
       gradientUnits="userSpaceOnUse" />
    <linearGradient
       x1="118.35831"
       y1="30.018106"
       x2="118.35831"
       y2="18.154741"
       id="linearGradient5407"
       xlink:href="#linearGradient5311"
       gradientUnits="userSpaceOnUse" />
    <linearGradient
       x1="118.35831"
       y1="30.018106"
       x2="118.35831"
       y2="18.154741"
       id="linearGradient5409"
       xlink:href="#linearGradient5311"
       gradientUnits="userSpaceOnUse" />
    <linearGradient
       x1="118.35831"
       y1="30.018106"
       x2="118.35831"
       y2="18.154741"
       id="linearGradient8077"
       xlink:href="#linearGradient5311"
       gradientUnits="userSpaceOnUse" />
    <linearGradient
       x1="118.35831"
       y1="30.018106"
       x2="118.35831"
       y2="18.154741"
       id="linearGradient8079"
       xlink:href="#linearGradient5311"
       gradientUnits="userSpaceOnUse" />
    <linearGradient
       x1="118.35831"
       y1="30.018106"
       x2="118.35831"
       y2="18.154741"
       id="linearGradient8081"
       xlink:href="#linearGradient5311"
       gradientUnits="userSpaceOnUse" />
  </defs>
  <g
     transform="matrix(1.0036526,0,0,1.0000175,1.4817325,15.000457)"
     id="g3305">
    <path
       d="M 30.435701,29.946737 C 30.220002,29.926137 29.488866,29.85663 28.810953,29.792273 22.681197,29.210364 16.32194,26.954238 12.395403,23.968393 11.28552,23.124408 9.7544874,21.496801 9.2263514,20.599449 8.5713554,19.486544 8.3255456,18.546357 8.3818234,17.369245 c 0.052988,-1.108276 0.338454,-1.835214 1.0980457,-2.796169 0.8635499,-1.092472 2.7170659,-2.229021 4.7483209,-2.911599 0.539947,-0.181445 1.005646,-0.353823 1.03489,-0.383065 0.02924,-0.02924 -0.142213,-0.08442 -0.381017,-0.122602 C 14.198356,11.04648 12.563828,10.556702 11.218862,10.058147 7.3111956,8.6096457 5.0000015,6.5991138 5.0000015,4.6482945 c 0,-0.6582282 0.4724776,-1.5384948 1.1384863,-2.121104 1.8175365,-1.58993706 5.9845772,-2.63143193 10.0755812,-2.51825503 1.570681,0.04345116 2.008015,0.16633176 2.008015,0.5641986 0,0.27713163 -0.5827,0.39256596 -2.353083,0.46616293 -6.9270027,0.2879555 -10.0106522,3.3516169 -6.2326821,6.1922811 1.4642771,1.100993 3.9519091,2.0979602 6.6267251,2.6557909 1.732626,0.361338 2.94083,0.508771 5.152508,0.628747 1.858284,0.100806 2.393385,0.22855 2.789141,0.665857 0.520251,0.57487 -0.146651,0.858508 -2.228882,0.947959 -4.441429,0.190804 -7.831486,1.469913 -9.205332,3.473284 -0.476177,0.69437 -0.643947,1.285595 -0.635287,2.238767 0.0061,0.667091 0.06801,0.88716 0.488892,1.736801 1.196452,2.415271 4.532617,4.723011 8.937774,6.182564 2.876961,0.95322 5.297653,1.393606 8.593714,1.563425 2.219659,0.114362 2.767075,0.264193 3.487607,0.954581 0.755144,0.723559 0.612307,1.347724 -0.370899,1.620748 -0.395226,0.10975 -1.914205,0.134724 -2.836579,0.04663 z M 50.563107,29.842094 C 49.501185,29.585078 48.872706,29.172522 48.075899,28.209408 45.342268,24.905209 39.893217,21.946691 34.187642,20.668892 32.194493,20.222514 30.87969,20.044738 28.428983,19.890249 25.946107,19.733735 25.548616,19.63131 24.954699,18.994992 24.720468,18.74404 24.701455,18.666959 24.813256,18.421579 c 0.190512,-0.418126 0.557853,-0.507453 2.539781,-0.617611 3.450121,-0.191762 5.845744,-0.848621 7.374129,-2.02193 3.602658,-2.765675 0.03229,-6.947282 -7.602515,-8.9040534 C 25.261276,6.4004054 22.964328,6.0722985 20.616242,5.9482863 19.138113,5.8702181 18.73968,5.8126339 18.431237,5.6324937 17.980847,5.3694534 17.941334,5.0438336 18.334135,4.832285 c 0.216489,-0.1165943 0.700155,-0.1371808 2.12898,-0.090618 4.790116,0.1560983 9.496258,1.2213939 13.373473,3.0272559 2.644787,1.2318438 4.88239,3.0347249 5.556823,4.4772439 0.4788,1.024087 0.597574,1.644791 0.458597,2.396584 -0.315673,1.70764 -1.876208,3.052892 -4.766168,4.108659 -0.163952,0.0599 0.06161,0.155284 0.840387,0.355397 5.267308,1.353472 10.297771,3.729883 13.73768,6.489739 1.459808,1.171213 3.350186,3.080354 3.374898,3.408396 0.06557,0.870531 -0.937017,1.209555 -2.475698,0.837152 z"
       id="path2235"
       style="fill:#ffffff;fill-opacity:1;stroke:none" />
    <g
       style="font-size:23.62433815px;font-style:normal;font-variant:normal;font-weight:normal;font-stretch:normal;text-align:start;line-height:125%;writing-mode:lr-tb;text-anchor:start;fill:#ffffff;fill-opacity:1;stroke:none;font-family:Futura Lt BT"
       id="text2170">
      <path
         d="m 55.168061,24.13049 -5.825338,-17.5452238 1.60341,0 4.221928,13.4847908 4.498775,-14.1538394 4.671805,14.0384864 4.060433,-13.3694378 1.591875,0 L 64.338641,24.13049 59.666836,9.7920855 55.168061,24.13049"
         style=""
         id="path2998" />
      <path
         d="m 72.37876,23.472977 0,-16.8877108 1.534197,0 0,16.8877108 -1.534197,0"
         style=""
         id="path3000" />
      <path
         d="m 78.14642,23.472977 0,-17.6029007 11.962128,14.1307687 0,-13.4155788 1.43038,0 0,17.3837298 -11.950593,-14.1538398 0,13.6578208 -1.441915,0"
         style=""
         id="path3002" />
      <path
         d="m 97.306588,22.146415 2.157106,0 c 1.745666,10e-7 2.983796,-0.09613 3.714376,-0.288383 0.73056,-0.199944 1.34962,-0.534468 1.85718,-1.003573 0.70749,-0.661355 1.24196,-1.484208 1.60341,-2.468559 0.36143,-0.984341 0.54215,-2.107112 0.54216,-3.368314 -1e-5,-1.291946 -0.18457,-2.430097 -0.55369,-3.414455 -0.36145,-0.984335 -0.89977,-1.7918063 -1.61495,-2.4224175 -0.53832,-0.4844687 -1.19584,-0.8266829 -1.97254,-1.0266436 -0.77672,-0.19993 -2.13404,-0.2999027 -4.071965,-0.2999183 l -0.288383,0 -1.372704,0 0,14.2922634 m -1.534197,1.326562 0,-16.8877108 2.630053,0 c 2.345506,1.69e-5 4.010436,0.11537 4.994796,0.3460597 0.98433,0.2307227 1.83026,0.6267683 2.53777,1.1881381 0.93819,0.7459653 1.65338,1.7072412 2.14557,2.88383 0.49216,1.176614 0.73824,2.522401 0.73826,4.037363 -2e-5,1.514979 -0.2461,2.86461 -0.73826,4.048898 -0.49219,1.176606 -1.19969,2.118656 -2.1225,2.826153 -0.73058,0.561387 -1.56497,0.961278 -2.50317,1.199674 -0.93821,0.238396 -2.44934,0.357595 -4.533377,0.357595 l -0.519089,0 -2.630053,0"
         style=""
         id="path3004" />
      <path
         d="m 115.45165,23.472977 0,-7.774807 -5.60617,-9.1129038 1.84565,0 4.53339,7.7402008 4.55645,-7.7402008 1.75337,0 -5.54849,9.1129038 0,7.774807 -1.5342,0"
         style=""
         id="path3006" />
      <path
         d="m 133.11222,7.9233635 0,6.2406085 1.54574,0 c 1.43037,1e-5 2.42625,-0.226851 2.98764,-0.680584 0.56907,-0.461402 0.85361,-1.241958 0.85362,-2.34167 -1e-5,-1.1612087 -0.29224,-1.9879059 -0.87669,-2.4800939 -0.58446,-0.4921585 -1.57265,-0.7382451 -2.96457,-0.7382606 l -1.54574,0 m 8.7207,15.5496135 -1.86872,0 -5.92915,-8.051655 -0.92283,0 0,8.051655 -1.5342,0 0,-16.8877108 3.10301,0 c 1.83026,1.69e-5 3.19912,0.3806821 4.10657,1.1419968 0.91513,0.7613462 1.37269,1.9148772 1.3727,3.460596 -1e-5,1.315038 -0.39221,2.349371 -1.1766,3.103002 -0.77672,0.753649 -1.8495,1.130469 -3.21835,1.130461 l 6.06757,8.051655"
         style=""
         id="path3008" />
      <path
         d="m 152.26086,22.550151 c 0.99972,1e-6 1.94561,-0.184564 2.83769,-0.553695 0.89205,-0.369129 1.69568,-0.907443 2.41088,-1.614945 0.6998,-0.715187 1.23426,-1.526503 1.60341,-2.433953 0.3768,-0.915129 0.56522,-1.876405 0.56523,-2.883831 -1e-5,-1.015098 -0.18458,-1.972529 -0.55369,-2.872295 -0.36915,-0.907433 -0.90746,-1.722595 -1.61495,-2.4454877 -0.69982,-0.7074853 -1.4996,-1.2457998 -2.39934,-1.614945 -0.89208,-0.3691146 -1.84182,-0.5536796 -2.84923,-0.5536955 -0.99974,1.59e-5 -1.94179,0.1845809 -2.82615,0.5536955 -0.88438,0.3691452 -1.68417,0.9074597 -2.39935,1.614945 -0.7075,0.7305837 -1.24582,1.5457457 -1.61494,2.4454877 -0.36914,0.892076 -0.5537,1.849506 -0.5537,2.872295 0,1.015116 0.18456,1.976392 0.5537,2.883831 0.36912,0.899759 0.90744,1.711076 1.61494,2.433953 0.70749,0.715192 1.49959,1.257351 2.37628,1.62648 0.87667,0.361441 1.82641,0.542161 2.84922,0.54216 m 9.04369,-7.486424 c -2e-5,1.191991 -0.22688,2.326296 -0.68058,3.40292 -0.45374,1.068944 -1.10741,2.02253 -1.96101,2.86076 -0.86901,0.845925 -1.84951,1.491902 -2.9415,1.937934 -1.09203,0.438342 -2.24556,0.657513 -3.4606,0.657513 -1.21506,0 -2.36859,-0.219171 -3.4606,-0.657513 -1.08432,-0.446032 -2.05713,-1.092009 -2.91843,-1.937934 -0.86131,-0.853611 -1.51882,-1.811042 -1.97254,-2.872295 -0.44604,-1.068934 -0.66905,-2.199394 -0.66905,-3.391385 0,-1.207354 0.22301,-2.345504 0.66905,-3.414455 0.45372,-1.076617 1.11123,-2.0417377 1.97254,-2.8953654 0.84592,-0.8382178 1.81104,-1.4726598 2.89536,-1.903328 1.08432,-0.4306349 2.24554,-0.6459607 3.48367,-0.645978 1.2458,1.73e-5 2.41087,0.2191882 3.4952,0.6575133 1.092,0.4306682 2.06097,1.0612651 2.9069,1.8917927 0.86129,0.8536277 1.51496,1.8187484 1.96101,2.8953654 0.4537,1.068951 0.68056,2.207101 0.68058,3.414455"
         style=""
         id="path3010" />
      <path
         d="m 166.29934,16.436431 5.88302,0 -2.88383,-7.3480001 -2.99919,7.3480001 m -4.31421,7.036546 7.41721,-17.5567594 7.10576,17.5567594 -1.67262,0 -2.1571,-5.72152 -6.89813,0 -2.23785,5.72152 -1.55727,0"
         style=""
         id="path3012" />
      <path
         d="m 179.94563,22.146415 2.1571,0 c 1.74567,10e-7 2.9838,-0.09613 3.71438,-0.288383 0.73056,-0.199944 1.34962,-0.534468 1.85718,-1.003573 0.70749,-0.661355 1.24196,-1.484208 1.60341,-2.468559 0.36143,-0.984341 0.54215,-2.107112 0.54216,-3.368314 -1e-5,-1.291946 -0.18458,-2.430097 -0.55369,-3.414455 -0.36146,-0.984335 -0.89977,-1.7918063 -1.61495,-2.4224175 -0.53832,-0.4844687 -1.19584,-0.8266829 -1.97254,-1.0266436 -0.77672,-0.19993 -2.13404,-0.2999027 -4.07197,-0.2999183 l -0.28838,0 -1.3727,0 0,14.2922634 m -1.5342,1.326562 0,-16.8877108 2.63005,0 c 2.34551,1.69e-5 4.01044,0.11537 4.9948,0.3460597 0.98433,0.2307227 1.83026,0.6267683 2.53777,1.1881381 0.93819,0.7459653 1.65338,1.7072412 2.14557,2.88383 0.49216,1.176614 0.73824,2.522401 0.73826,4.037363 -2e-5,1.514979 -0.2461,2.86461 -0.73826,4.048898 -0.49219,1.176606 -1.19969,2.118656 -2.1225,2.826153 -0.73058,0.561387 -1.56497,0.961278 -2.50317,1.199674 -0.93821,0.238396 -2.44934,0.357595 -4.53338,0.357595 l -0.51909,0 -2.63005,0"
         style=""
         id="path3014" />
    </g>
  </g>
</svg>
