<?xml version="1.0" encoding="UTF-8" standalone="no"?>
<!-- Created with Inkscape (http://www.inkscape.org/) -->

<svg
   xmlns:dc="http://purl.org/dc/elements/1.1/"
   xmlns:cc="http://creativecommons.org/ns#"
   xmlns:rdf="http://www.w3.org/1999/02/22-rdf-syntax-ns#"
   xmlns:svg="http://www.w3.org/2000/svg"
   xmlns="http://www.w3.org/2000/svg"
   xmlns:xlink="http://www.w3.org/1999/xlink"
   version="1.0"
   width="200"
   height="60"
   id="svg2160">
  <metadata
     id="metadata2165">
    <rdf:RDF>
      <cc:Work
         rdf:about="">
        <dc:format>image/svg+xml</dc:format>
        <dc:type
           rdf:resource="http://purl.org/dc/dcmitype/StillImage" />
        <dc:title></dc:title>
      </cc:Work>
    </rdf:RDF>
  </metadata>
  <defs
     id="defs2163">
    <linearGradient
       id="linearGradient5311">
      <stop
         id="stop5313"
         style="stop-color:#ffffff;stop-opacity:0.49714285"
         offset="0" />
      <stop
         id="stop5315"
         style="stop-color:#ffffff;stop-opacity:0"
         offset="1" />
    </linearGradient>
    <linearGradient
       x1="118.35831"
       y1="30.018106"
       x2="118.35831"
       y2="18.154741"
       id="linearGradient5317"
       xlink:href="#linearGradient5311"
       gradientUnits="userSpaceOnUse" />
    <linearGradient
       x1="118.35831"
       y1="30.018106"
       x2="118.35831"
       y2="18.154741"
       id="linearGradient5407"
       xlink:href="#linearGradient5311"
       gradientUnits="userSpaceOnUse" />
    <linearGradient
       x1="118.35831"
       y1="30.018106"
       x2="118.35831"
       y2="18.154741"
       id="linearGradient5409"
       xlink:href="#linearGradient5311"
       gradientUnits="userSpaceOnUse" />
    <linearGradient
       x1="118.35831"
       y1="30.018106"
       x2="118.35831"
       y2="18.154741"
       id="linearGradient8077"
       xlink:href="#linearGradient5311"
       gradientUnits="userSpaceOnUse" />
    <linearGradient
       x1="118.35831"
       y1="30.018106"
       x2="118.35831"
       y2="18.154741"
       id="linearGradient8079"
       xlink:href="#linearGradient5311"
       gradientUnits="userSpaceOnUse" />
    <linearGradient
       x1="118.35831"
       y1="30.018106"
       x2="118.35831"
       y2="18.154741"
       id="linearGradient8081"
       xlink:href="#linearGradient5311"
       gradientUnits="userSpaceOnUse" />
  </defs>
  <g
     transform="matrix(1.0036526,0,0,1.0000175,1.4817325,15.000457)"
     id="g3305">
    <path
       d="M 30.435701,29.946737 C 30.220002,29.926137 29.488866,29.85663 28.810953,29.792273 22.681197,29.210364 16.32194,26.954238 12.395403,23.968393 11.28552,23.124408 9.7544874,21.496801 9.2263514,20.599449 8.5713554,19.486544 8.3255456,18.546357 8.3818234,17.369245 c 0.052988,-1.108276 0.338454,-1.835214 1.0980457,-2.796169 0.8635499,-1.092472 2.7170659,-2.229021 4.7483209,-2.911599 0.539947,-0.181445 1.005646,-0.353823 1.03489,-0.383065 0.02924,-0.02924 -0.142213,-0.08442 -0.381017,-0.122602 C 14.198356,11.04648 12.563828,10.556702 11.218862,10.058147 7.3111956,8.6096457 5.0000015,6.5991138 5.0000015,4.6482945 c 0,-0.6582282 0.4724776,-1.5384948 1.1384863,-2.121104 1.8175365,-1.58993706 5.9845772,-2.63143193 10.0755812,-2.51825503 1.570681,0.04345116 2.008015,0.16633176 2.008015,0.5641986 0,0.27713163 -0.5827,0.39256596 -2.353083,0.46616293 -6.9270027,0.2879555 -10.0106522,3.3516169 -6.2326821,6.1922811 1.4642771,1.100993 3.9519091,2.0979602 6.6267251,2.6557909 1.732626,0.361338 2.94083,0.508771 5.152508,0.628747 1.858284,0.100806 2.393385,0.22855 2.789141,0.665857 0.520251,0.57487 -0.146651,0.858508 -2.228882,0.947959 -4.441429,0.190804 -7.831486,1.469913 -9.205332,3.473284 -0.476177,0.69437 -0.643947,1.285595 -0.635287,2.238767 0.0061,0.667091 0.06801,0.88716 0.488892,1.736801 1.196452,2.415271 4.532617,4.723011 8.937774,6.182564 2.876961,0.95322 5.297653,1.393606 8.593714,1.563425 2.219659,0.114362 2.767075,0.264193 3.487607,0.954581 0.755144,0.723559 0.612307,1.347724 -0.370899,1.620748 -0.395226,0.10975 -1.914205,0.134724 -2.836579,0.04663 z M 50.563107,29.842094 C 49.501185,29.585078 48.872706,29.172522 48.075899,28.209408 45.342268,24.905209 39.893217,21.946691 34.187642,20.668892 32.194493,20.222514 30.87969,20.044738 28.428983,19.890249 25.946107,19.733735 25.548616,19.63131 24.954699,18.994992 24.720468,18.74404 24.701455,18.666959 24.813256,18.421579 c 0.190512,-0.418126 0.557853,-0.507453 2.539781,-0.617611 3.450121,-0.191762 5.845744,-0.848621 7.374129,-2.02193 3.602658,-2.765675 0.03229,-6.947282 -7.602515,-8.9040534 C 25.261276,6.4004054 22.964328,6.0722985 20.616242,5.9482863 19.138113,5.8702181 18.73968,5.8126339 18.431237,5.6324937 17.980847,5.3694534 17.941334,5.0438336 18.334135,4.832285 c 0.216489,-0.1165943 0.700155,-0.1371808 2.12898,-0.090618 4.790116,0.1560983 9.496258,1.2213939 13.373473,3.0272559 2.644787,1.2318438 4.88239,3.0347249 5.556823,4.4772439 0.4788,1.024087 0.597574,1.644791 0.458597,2.396584 -0.315673,1.70764 -1.876208,3.052892 -4.766168,4.108659 -0.163952,0.0599 0.06161,0.155284 0.840387,0.355397 5.267308,1.353472 10.297771,3.729883 13.73768,6.489739 1.459808,1.171213 3.350186,3.080354 3.374898,3.408396 0.06557,0.870531 -0.937017,1.209555 -2.475698,0.837152 z"
       id="path2235"
       style="fill:#ffffff;fill-opacity:1;stroke:none" />
    <text
       x="49.05434"
       y="23.472977"
       id="text2170"
       xml:space="preserve"
       style="font-size:23.62433815px;font-style:normal;font-variant:normal;font-weight:normal;font-stretch:normal;text-align:start;line-height:125%;writing-mode:lr-tb;text-anchor:start;fill:#ffffff;fill-opacity:1;stroke:none;font-family:Futura Lt BT"><tspan
         x="49.05434"
         y="23.472977"
         id="tspan2172">WINDY ROAD</tspan></text>
  </g>
</svg>
