<svg xmlns="http://www.w3.org/2000/svg" viewBox="0 0 1200 800" width="1200" height="800">
<defs>
  <marker id="evolve-arrow" markerWidth="8" markerHeight="6" refX="8" refY="3" orient="auto">
    <polygon points="0,0 8,3 0,6" fill="#c44"/>
  </marker>
</defs>
<style>
  text { font-family: -apple-system, BlinkMacSystemFont, "Segoe UI", Helvetica, Arial, sans-serif; }
  .title { font-size: 20px; font-weight: 700; }
  .axis-label { font-size: 12px; fill: #666; }
  .phase-label { font-size: 11px; fill: #999; }
  .comp-label { font-size: 13px; fill: #222; }
  .anchor-label { font-size: 13px; fill: #222; font-weight: 600; }
  .evolve-label { font-size: 11px; fill: #c44; }
</style>
<rect width="1200" height="800" fill="white"/>
<text x="80" y="35" class="title">AI Engineering Landscape (Week ending 2026-06-07)</text>
<line x1="80" y1="60" x2="80" y2="720" stroke="#333" stroke-width="1.5"/>
<line x1="80" y1="720" x2="1140" y2="720" stroke="#333" stroke-width="1.5"/>
<polygon points="1140,720 1132,716 1132,724" fill="#333"/>
<text x="70" y="390" class="axis-label" transform="rotate(-90 70 390)" text-anchor="middle">Value Chain</text>
<text x="610" y="785" class="axis-label" text-anchor="middle">Evolution</text>
<text x="170.10000000000002" y="745" class="phase-label" text-anchor="middle">Genesis</text>
<line x1="260.20000000000005" y1="60" x2="260.20000000000005" y2="720" stroke="#ddd" stroke-width="1" stroke-dasharray="4,4"/>
<text x="366.20000000000005" y="745" class="phase-label" text-anchor="middle">Custom-Built</text>
<line x1="472.2" y1="60" x2="472.2" y2="720" stroke="#ddd" stroke-width="1" stroke-dasharray="4,4"/>
<text x="610" y="745" class="phase-label" text-anchor="middle">Product</text>
<line x1="747.8" y1="60" x2="747.8" y2="720" stroke="#ddd" stroke-width="1" stroke-dasharray="4,4"/>
<text x="943.9" y="745" class="phase-label" text-anchor="middle">Commodity</text>
<line x1="610" y1="93.00000000000003" x2="557" y2="139.2" stroke="#aaa" stroke-width="1.5"/>
<line x1="557" y1="139.2" x2="419.2" y2="178.8" stroke="#aaa" stroke-width="1.5"/>
<line x1="557" y1="139.2" x2="663" y2="258" stroke="#aaa" stroke-width="1.5"/>
<line x1="419.2" y1="178.8" x2="716" y2="310.8" stroke="#aaa" stroke-width="1.5"/>
<line x1="663" y1="258" x2="716" y2="310.8" stroke="#aaa" stroke-width="1.5"/>
<line x1="663" y1="258" x2="292" y2="469.2" stroke="#aaa" stroke-width="1.5"/>
<line x1="716" y1="310.8" x2="758.4" y2="508.79999999999995" stroke="#aaa" stroke-width="1.5"/>
<line x1="716" y1="310.8" x2="822" y2="574.8000000000001" stroke="#aaa" stroke-width="1.5"/>
<line x1="716" y1="310.8" x2="398" y2="423.00000000000006" stroke="#aaa" stroke-width="1.5"/>
<line x1="525.2" y1="356.99999999999994" x2="758.4" y2="508.79999999999995" stroke="#aaa" stroke-width="1.5"/>
<line x1="525.2" y1="356.99999999999994" x2="822" y2="574.8000000000001" stroke="#aaa" stroke-width="1.5"/>
<line x1="525.2" y1="356.99999999999994" x2="398" y2="423.00000000000006" stroke="#aaa" stroke-width="1.5"/>
<line x1="525.2" y1="356.99999999999994" x2="398" y2="442.80000000000007" stroke="#aaa" stroke-width="1.5"/>
<line x1="292" y1="469.2" x2="716" y2="310.8" stroke="#aaa" stroke-width="1.5"/>
<line x1="292" y1="469.2" x2="525.2" y2="356.99999999999994" stroke="#aaa" stroke-width="1.5"/>
<line x1="419.2" y1="324" x2="419.2" y2="178.8" stroke="#aaa" stroke-width="1.5"/>
<line x1="419.2" y1="178.8" x2="239" y2="205.2" stroke="#aaa" stroke-width="1.5"/>
<line x1="758.4" y1="508.79999999999995" x2="949.1999999999999" y2="654" stroke="#aaa" stroke-width="1.5"/>
<line x1="822" y1="574.8000000000001" x2="949.1999999999999" y2="654" stroke="#aaa" stroke-width="1.5"/>
<line x1="724" y1="310.8" x2="968.4" y2="310.8" stroke="#c44" stroke-width="2" stroke-dasharray="6,3" marker-end="url(#evolve-arrow)"/>
<circle cx="970.4" cy="310.8" r="5" fill="none" stroke="#c44" stroke-width="1.5" stroke-dasharray="3,2"/>
<line x1="533.2" y1="356.99999999999994" x2="735.2" y2="356.99999999999994" stroke="#c44" stroke-width="2" stroke-dasharray="6,3" marker-end="url(#evolve-arrow)"/>
<circle cx="737.2" cy="356.99999999999994" r="5" fill="none" stroke="#c44" stroke-width="1.5" stroke-dasharray="3,2"/>
<line x1="766.4" y1="508.79999999999995" x2="989.6" y2="508.79999999999995" stroke="#c44" stroke-width="2" stroke-dasharray="6,3" marker-end="url(#evolve-arrow)"/>
<circle cx="991.6" cy="508.79999999999995" r="5" fill="none" stroke="#c44" stroke-width="1.5" stroke-dasharray="3,2"/>
<line x1="406" y1="442.80000000000007" x2="586.8" y2="442.80000000000007" stroke="#c44" stroke-width="2" stroke-dasharray="6,3" marker-end="url(#evolve-arrow)"/>
<circle cx="588.8" cy="442.80000000000007" r="5" fill="none" stroke="#c44" stroke-width="1.5" stroke-dasharray="3,2"/>
<line x1="300" y1="469.2" x2="459.59999999999997" y2="469.2" stroke="#c44" stroke-width="2" stroke-dasharray="6,3" marker-end="url(#evolve-arrow)"/>
<circle cx="461.59999999999997" cy="469.2" r="5" fill="none" stroke="#c44" stroke-width="1.5" stroke-dasharray="3,2"/>
<line x1="406" y1="423.00000000000006" x2="586.8" y2="423.00000000000006" stroke="#c44" stroke-width="2" stroke-dasharray="6,3" marker-end="url(#evolve-arrow)"/>
<circle cx="588.8" cy="423.00000000000006" r="5" fill="none" stroke="#c44" stroke-width="1.5" stroke-dasharray="3,2"/>
<line x1="427.2" y1="324" x2="650.4000000000001" y2="324" stroke="#c44" stroke-width="2" stroke-dasharray="6,3" marker-end="url(#evolve-arrow)"/>
<circle cx="652.4000000000001" cy="324" r="5" fill="none" stroke="#c44" stroke-width="1.5" stroke-dasharray="3,2"/>
<line x1="247" y1="205.2" x2="449" y2="205.2" stroke="#c44" stroke-width="2" stroke-dasharray="6,3" marker-end="url(#evolve-arrow)"/>
<circle cx="451" cy="205.2" r="5" fill="none" stroke="#c44" stroke-width="1.5" stroke-dasharray="3,2"/>
<text x="620" y="83.00000000000003" class="anchor-label">Ship Software Under AI Disruption</text>
<circle cx="557" cy="139.2" r="6" fill="white" stroke="#333" stroke-width="1.5"/>
<text x="567" y="129.2" class="comp-label">Shipped Product</text>
<circle cx="419.2" cy="178.8" r="6" fill="white" stroke="#333" stroke-width="1.5"/>
<text x="429.2" y="168.8" class="comp-label">Engineering Team Capability</text>
<circle cx="663" cy="258" r="6" fill="white" stroke="#333" stroke-width="1.5"/>
<text x="673" y="248" class="comp-label">Delivery Pipeline</text>
<circle cx="716" cy="310.8" r="6" fill="white" stroke="#333" stroke-width="1.5"/>
<text x="726" y="300.8" class="comp-label">AI Coding Assistants</text>
<circle cx="525.2" cy="356.99999999999994" r="6" fill="white" stroke="#333" stroke-width="1.5"/>
<text x="535.2" y="346.99999999999994" class="comp-label">AI Agent Runtimes</text>
<circle cx="239" cy="205.2" r="6" fill="white" stroke="#333" stroke-width="1.5"/>
<text x="249" y="195.2" class="comp-label">Agentic Engineering Practices</text>
<circle cx="398" cy="423.00000000000006" r="6" fill="white" stroke="#333" stroke-width="1.5"/>
<text x="408" y="413.00000000000006" class="comp-label">Prompt and Context Management</text>
<circle cx="398" cy="442.80000000000007" r="6" fill="white" stroke="#333" stroke-width="1.5"/>
<text x="408" y="432.80000000000007" class="comp-label">Model Evaluation Frameworks</text>
<circle cx="292" cy="469.2" r="6" fill="white" stroke="#333" stroke-width="1.5"/>
<text x="302" y="459.2" class="comp-label">AI Security Tooling</text>
<circle cx="758.4" cy="508.79999999999995" r="6" fill="white" stroke="#333" stroke-width="1.5"/>
<text x="768.4" y="498.79999999999995" class="comp-label">Foundation Models</text>
<circle cx="822" cy="574.8000000000001" r="6" fill="white" stroke="#333" stroke-width="1.5"/>
<text x="832" y="564.8000000000001" class="comp-label">Model Hosting and Inference</text>
<circle cx="419.2" cy="324" r="6" fill="white" stroke="#333" stroke-width="1.5"/>
<text x="429.2" y="314" class="comp-label">AI Regulation and Compliance</text>
<circle cx="949.1999999999999" cy="654" r="6" fill="white" stroke="#333" stroke-width="1.5"/>
<text x="959.1999999999999" y="644" class="comp-label">Compute and GPU Infrastructure</text>
</svg>